# xmcd CD database file
#
# Track frame offsets:
#	150
#	17874
#	34478
#	53192
#	71899
#	88719
#	114640
#	136756
#	157166
#	180396
#
# Disc length: 2838 seconds
#
# Revision: 2
# Processed by: cddbd v1.4PL0 Copyright (c) Steve Scherf et al.
# Submitted via: CDex 1.50beta10
#
DISCID=8c0b140a
DTITLE=Kubek, Smokin' Joe - Roadhouse Research
DYEAR=2003
DGENRE=Blues
TTITLE0=Healthy Mama
TTITLE1=Tell Me Why
TTITLE2=Cryin' Shame
TTITLE3=Got To Get Paid
TTITLE4=Better Be Getting It On
TTITLE5=Runnin' Blind
TTITLE6=The Blues Is Still With Us
TTITLE7=Make It Right
TTITLE8=I Need More
TTITLE9=Standing In My Door
EXTD=YEAR: 2003
EXTT0=
EXTT1=
EXTT2=
EXTT3=
EXTT4=
EXTT5=
EXTT6=
EXTT7=
EXTT8=
EXTT9=
PLAYORDER=
